<svg width="512" height="512" viewBox="0 0 512 512" fill="none" xmlns="http://www.w3.org/2000/svg">
<g clip-path="url(#clip0_8_162)">
<path d="M472.579 344.148C467.322 321.611 472.924 286.133 488.841 267.164C493.304 261.845 494.221 253.552 487.13 247.602C480.038 241.651 472.03 243.995 467.568 249.313C451.651 268.282 417.684 279.96 394.576 278.696C371.469 277.432 323.196 270.157 303.857 293.203C274.106 328.659 294.687 376.138 344.325 417.789C393.963 459.441 444.294 471.464 474.045 436.008C493.384 412.962 477.836 366.685 472.579 344.148Z" fill="url(#paint0_linear_8_162)"/>
<path d="M310.39 112.498C304.507 87.278 310.776 47.5759 328.588 26.3486C333.582 20.397 334.608 11.1162 326.673 4.45764C318.737 -2.20093 309.775 0.421488 304.782 6.37284C286.97 27.6002 248.959 40.668 223.101 39.2539C197.242 37.8398 143.222 29.6985 121.581 55.4885C88.2886 95.1655 111.319 148.297 166.867 194.907C222.414 241.517 278.738 254.971 312.031 215.294C333.671 189.504 316.273 137.719 310.39 112.498Z" fill="url(#paint1_linear_8_162)"/>
<path d="M373.284 282.303C362.695 236.906 373.979 165.441 406.041 127.232C415.03 116.519 416.877 99.8129 402.593 87.8273C388.309 75.8417 372.178 80.5621 363.189 91.2747C331.127 129.484 262.708 153.007 216.161 150.461C169.615 147.916 72.3772 133.262 33.424 179.684C-26.504 251.104 14.9518 346.741 114.939 430.64C214.926 514.54 316.309 538.758 376.237 467.339C415.191 420.916 383.874 327.7 373.284 282.303Z" fill="url(#paint2_linear_8_162)"/>
<mask id="mask0_8_162" style="mask-type:alpha" maskUnits="userSpaceOnUse" x="106" y="0" width="387" height="457">
<path fill-rule="evenodd" clip-rule="evenodd" d="M310.39 112.498C304.507 87.2781 310.776 47.576 328.588 26.3487C333.582 20.3971 334.608 11.1163 326.673 4.45772C318.737 -2.20085 309.775 0.421569 304.782 6.37292C286.97 27.6003 248.959 40.6681 223.101 39.254C219.826 39.0749 216.1 38.788 212.045 38.4757C184.079 36.3221 140.481 32.9646 121.581 55.4886C99.432 81.8852 102.212 114.237 122.911 146.661C148.734 145.401 175.006 147.424 196.26 149.061C203.559 149.623 210.267 150.139 216.161 150.462C245.065 152.042 282.404 143.571 314.234 127.773C313.84 126.225 313.452 124.716 313.076 123.251C312.065 119.312 311.135 115.692 310.39 112.498ZM373.284 282.304C372.889 280.61 372.524 278.88 372.19 277.118C376.605 277.378 380.819 277.702 384.696 278.001C388.32 278.28 391.65 278.536 394.576 278.696C417.684 279.96 451.65 268.282 467.567 249.313C472.03 243.995 480.038 241.652 487.129 247.602C494.22 253.552 493.303 261.845 488.841 267.164C472.924 286.133 467.322 321.611 472.579 344.148C473.245 347.002 474.075 350.236 474.979 353.756L474.979 353.757C481.214 378.034 490.934 415.88 474.045 436.008C453.143 460.919 422.082 462.393 388.239 446.621C404.473 404.273 388.771 343.134 378.119 301.659L378.119 301.657C376.298 294.567 374.625 288.052 373.284 282.304Z" fill="url(#paint3_linear_8_162)"/>
</mask>
<g mask="url(#mask0_8_162)">
<g filter="url(#filter0_dd_8_162)">
<path d="M373.284 282.303C362.695 236.906 373.979 165.441 406.041 127.232C415.03 116.519 416.877 99.8129 402.593 87.8273C388.31 75.8417 372.178 80.5621 363.189 91.2747C331.127 129.484 262.708 153.007 216.162 150.461C169.615 147.916 72.3775 133.262 33.4243 179.684C-26.5038 251.104 14.9521 346.741 114.939 430.64C214.926 514.54 316.31 538.758 376.238 467.339C415.191 420.916 383.874 327.7 373.284 282.303Z" fill="#D9D9D9"/>
</g>
</g>
</g>
<defs>
<filter id="filter0_dd_8_162" x="-40.0506" y="39.6643" width="498.788" height="520.034" filterUnits="userSpaceOnUse" color-interpolation-filters="sRGB">
<feFlood flood-opacity="0" result="BackgroundImageFix"/>
<feColorMatrix in="SourceAlpha" type="matrix" values="0 0 0 0 0 0 0 0 0 0 0 0 0 0 0 0 0 0 127 0" result="hardAlpha"/>
<feOffset dy="4.57535"/>
<feGaussianBlur stdDeviation="9.97284"/>
<feComposite in2="hardAlpha" operator="out"/>
<feColorMatrix type="matrix" values="0 0 0 0 0 0 0 0 0 0 0 0 0 0 0 0 0 0 0.57 0"/>
<feBlend mode="normal" in2="BackgroundImageFix" result="effect1_dropShadow_8_162"/>
<feColorMatrix in="SourceAlpha" type="matrix" values="0 0 0 0 0 0 0 0 0 0 0 0 0 0 0 0 0 0 127 0" result="hardAlpha"/>
<feOffset dy="4.57535"/>
<feGaussianBlur stdDeviation="22.841"/>
<feComposite in2="hardAlpha" operator="out"/>
<feColorMatrix type="matrix" values="0 0 0 0 0 0 0 0 0 0 0 0 0 0 0 0 0 0 0.25 0"/>
<feBlend mode="normal" in2="effect1_dropShadow_8_162" result="effect2_dropShadow_8_162"/>
<feBlend mode="normal" in="SourceGraphic" in2="effect2_dropShadow_8_162" result="shape"/>
</filter>
<linearGradient id="paint0_linear_8_162" x1="369.623" y1="243.15" x2="450.79" y2="457.239" gradientUnits="userSpaceOnUse">
<stop stop-color="#F58E19"/>
<stop offset="1" stop-color="#BD4848"/>
</linearGradient>
<linearGradient id="paint1_linear_8_162" x1="195.177" y1="-0.52391" x2="286.007" y2="239.053" gradientUnits="userSpaceOnUse">
<stop stop-color="#8BEC91"/>
<stop offset="1" stop-color="#40730A"/>
</linearGradient>
<linearGradient id="paint2_linear_8_162" x1="181.738" y1="78.2615" x2="348.251" y2="512.632" gradientUnits="userSpaceOnUse">
<stop stop-color="#8BCDEC"/>
<stop offset="1" stop-color="#123A91"/>
</linearGradient>
<linearGradient id="paint3_linear_8_162" x1="195.176" y1="-0.523861" x2="286.007" y2="239.053" gradientUnits="userSpaceOnUse">
<stop stop-color="#8BEC91"/>
<stop offset="1" stop-color="#40730A"/>
</linearGradient>
<clipPath id="clip0_8_162">
<rect width="512" height="512" fill="white"/>
</clipPath>
</defs>
</svg>
